<svg xmlns="http://www.w3.org/2000/svg" viewBox="0 0 640 360" fill="none">
  <rect width="640" height="360" fill="#e8e8e8"/>
  <rect x="40" y="20" width="560" height="320" rx="10" fill="white" stroke="#ccc"/>
  <rect x="40" y="20" width="560" height="48" fill="#003580" rx="10"/>
  <rect x="40" y="56" width="560" height="12" fill="#003580"/>
  <circle cx="68" cy="44" r="6" fill="#ff5f57"/>
  <circle cx="86" cy="44" r="6" fill="#febc2e"/>
  <circle cx="104" cy="44" r="6" fill="#28c840"/>
  <text x="130" y="50" fill="white" font-family="Inter,sans-serif" font-size="14" font-weight="700">BookingGuide</text>
  <rect x="40" y="68" width="140" height="272" fill="#f5f5f5" stroke="#e7e7e7"/>
  <text x="56" y="96" fill="#666" font-family="Inter,sans-serif" font-size="11">Home</text>
  <rect x="48" y="108" width="124" height="32" rx="6" fill="#003580"/>
  <text x="60" y="128" fill="white" font-family="Inter,sans-serif" font-size="11" font-weight="600">Resources</text>
  <text x="56" y="164" fill="#666" font-family="Inter,sans-serif" font-size="11">Settings</text>
  <text x="56" y="188" fill="#666" font-family="Inter,sans-serif" font-size="11">Help</text>
  <rect x="196" y="84" width="380" height="240" rx="6" fill="white" stroke="#e7e7e7"/>
  <text x="212" y="112" fill="#003580" font-family="Inter,sans-serif" font-size="16" font-weight="700">Accessibility Housing Guide</text>
  <rect x="212" y="128" width="348" height="60" rx="6" fill="#f0f7ff" stroke="#006ce4"/>
  <text x="228" y="152" fill="#333" font-family="Inter,sans-serif" font-size="12" font-weight="600">Chapter 1: Understanding Accessibility Requirements</text>
  <text x="228" y="172" fill="#666" font-family="Inter,sans-serif" font-size="10">Learn about legal standards and best practices...</text>
  <rect x="212" y="200" width="348" height="60" rx="6" fill="#f9f9f9" stroke="#e7e7e7"/>
  <text x="228" y="224" fill="#333" font-family="Inter,sans-serif" font-size="12" font-weight="600">Chapter 2: Adapting Your Property</text>
  <text x="228" y="244" fill="#666" font-family="Inter,sans-serif" font-size="10">Physical modifications and communication tools...</text>
  <rect x="480" y="300" width="80" height="24" rx="12" fill="#28c840"/>
  <text x="496" y="316" fill="white" font-family="Inter,sans-serif" font-size="10" font-weight="600">Ready </text>
</svg>
