<svg xmlns="http://www.w3.org/2000/svg" viewBox="0 0 640 360" fill="none">
  <rect width="640" height="360" fill="#f0f0f0"/>
  <rect y="0" width="640" height="24" fill="#e8e8e8"/>
  <circle cx="20" cy="12" r="6" fill="#ff5f57"/>
  <circle cx="38" cy="12" r="6" fill="#febc2e"/>
  <circle cx="56" cy="12" r="6" fill="#28c840"/>
  <text x="300" y="16" fill="#666" font-family="Inter,sans-serif" font-size="10">Safari  booking.com</text>
  <rect y="24" width="640" height="48" fill="#003580"/>
  <text x="16" y="54" fill="white" font-family="Inter,sans-serif" font-size="14" font-weight="700">B. Booking.com</text>
  <rect x="0" y="72" width="640" height="140" fill="#003580"/>
  <text x="32" y="114" fill="white" font-family="Inter,sans-serif" font-size="18" font-weight="700">Complete Guide to Housing</text>
  <text x="32" y="138" fill="white" font-family="Inter,sans-serif" font-size="18" font-weight="700">People with Disabilities</text>
  <rect x="32" y="156" width="140" height="40" rx="4" fill="#febb02" opacity="0.5"/>
  <text x="48" y="181" fill="#00224f" font-family="Inter,sans-serif" font-size="13" font-weight="600">Download for Windows</text>
  <rect x="184" y="156" width="140" height="40" rx="4" fill="#febb02"/>
  <text x="204" y="181" fill="#00224f" font-family="Inter,sans-serif" font-size="13" font-weight="600">Download for Mac</text>
  <circle cx="340" cy="176" r="40" fill="none" stroke="#febb02" stroke-width="3" stroke-dasharray="8 4"/>
  <path d="M320 176 L360 176 M340 156 L340 196" stroke="#febb02" stroke-width="2"/>
  <text x="300" y="234" fill="#febb02" font-family="Inter,sans-serif" font-size="11" font-weight="600">Click here</text>
  <rect x="32" y="244" width="576" height="96" rx="4" fill="white" stroke="#e7e7e7"/>
  <text x="48" y="272" fill="#333" font-family="Inter,sans-serif" font-size="12" font-weight="600">Setup Instructions</text>
  <text x="48" y="294" fill="#6b6b6b" font-family="Inter,sans-serif" font-size="11">Follow the step-by-step guides below...</text>
</svg>
